<svg width="173" height="170" viewBox="0 0 173 170" fill="none" xmlns="http://www.w3.org/2000/svg">
<path d="M172.789 84.1765L143.697 102.516V65.8371L172.789 84.1765Z" fill="#D7D4D4"/>
<path d="M-19 -2H153V170H-19V-2Z" fill="#D7D4D4"/>
<path d="M91.5 43H56.5C53.1848 43 50.0054 44.317 47.6612 46.6612C45.317 49.0054 44 52.1848 44 55.5V110.5C44 113.815 45.317 116.995 47.6612 119.339C50.0054 121.683 53.1848 123 56.5 123H91.5C94.8152 123 97.9946 121.683 100.339 119.339C102.683 116.995 104 113.815 104 110.5V55.5C104 52.1848 102.683 49.0054 100.339 46.6612C97.9946 44.317 94.8152 43 91.5 43ZM61.5 53H86.5C88.4891 53 90.3968 53.7902 91.8033 55.1967C93.2098 56.6032 94 58.5109 94 60.5V65.5C94 67.4891 93.2098 69.3968 91.8033 70.8033C90.3968 72.2098 88.4891 73 86.5 73H61.5C59.5109 73 57.6032 72.2098 56.1967 70.8033C54.7902 69.3968 54 67.4891 54 65.5V60.5C54 58.5109 54.7902 56.6032 56.1967 55.1967C57.6032 53.7902 59.5109 53 61.5 53ZM64 88C64 89.3261 63.4732 90.5979 62.5355 91.5355C61.5979 92.4732 60.3261 93 59 93C57.6739 93 56.4021 92.4732 55.4645 91.5355C54.5268 90.5979 54 89.3261 54 88C54 86.6739 54.5268 85.4021 55.4645 84.4645C56.4021 83.5268 57.6739 83 59 83C60.3261 83 61.5979 83.5268 62.5355 84.4645C63.4732 85.4021 64 86.6739 64 88ZM64 103C64 104.326 63.4732 105.598 62.5355 106.536C61.5979 107.473 60.3261 108 59 108C57.6739 108 56.4021 107.473 55.4645 106.536C54.5268 105.598 54 104.326 54 103C54 101.674 54.5268 100.402 55.4645 99.4645C56.4021 98.5268 57.6739 98 59 98C60.3261 98 61.5979 98.5268 62.5355 99.4645C63.4732 100.402 64 101.674 64 103ZM89 93C87.6739 93 86.4021 92.4732 85.4645 91.5355C84.5268 90.5979 84 89.3261 84 88C84 86.6739 84.5268 85.4021 85.4645 84.4645C86.4021 83.5268 87.6739 83 89 83C90.3261 83 91.5979 83.5268 92.5355 84.4645C93.4732 85.4021 94 86.6739 94 88C94 89.3261 93.4732 90.5979 92.5355 91.5355C91.5979 92.4732 90.3261 93 89 93ZM94 103C94 104.326 93.4732 105.598 92.5355 106.536C91.5979 107.473 90.3261 108 89 108C87.6739 108 86.4021 107.473 85.4645 106.536C84.5268 105.598 84 104.326 84 103C84 101.674 84.5268 100.402 85.4645 99.4645C86.4021 98.5268 87.6739 98 89 98C90.3261 98 91.5979 98.5268 92.5355 99.4645C93.4732 100.402 94 101.674 94 103ZM74 93C72.6739 93 71.4021 92.4732 70.4645 91.5355C69.5268 90.5979 69 89.3261 69 88C69 86.6739 69.5268 85.4021 70.4645 84.4645C71.4021 83.5268 72.6739 83 74 83C75.3261 83 76.5979 83.5268 77.5355 84.4645C78.4732 85.4021 79 86.6739 79 88C79 89.3261 78.4732 90.5979 77.5355 91.5355C76.5979 92.4732 75.3261 93 74 93ZM79 103C79 104.326 78.4732 105.598 77.5355 106.536C76.5979 107.473 75.3261 108 74 108C72.6739 108 71.4021 107.473 70.4645 106.536C69.5268 105.598 69 104.326 69 103C69 101.674 69.5268 100.402 70.4645 99.4645C71.4021 98.5268 72.6739 98 74 98C75.3261 98 76.5979 98.5268 77.5355 99.4645C78.4732 100.402 79 101.674 79 103Z" fill="#0C0B0B"/>
</svg>
